<mxfile host="app.diagrams.net" agent="Mozilla/5.0 (Windows NT 10.0; Win64; x64) AppleWebKit/537.36 (KHTML, like Gecko) Chrome/140.0.0.0 Safari/537.36" version="28.2.5">
  <diagram name="Page-1" id="O3saW3UVsV8dm7cbKEJK">
    <mxGraphModel dx="1426" dy="777" grid="1" gridSize="10" guides="1" tooltips="1" connect="1" arrows="1" fold="1" page="1" pageScale="1" pageWidth="827" pageHeight="1169" math="0" shadow="0">
      <root>
        <mxCell id="0" />
        <mxCell id="1" parent="0" />
        <mxCell id="1JbwSRb321JDhPGVlAyv-4" value="" style="edgeStyle=orthogonalEdgeStyle;rounded=0;orthogonalLoop=1;jettySize=auto;html=1;" edge="1" parent="1" source="1JbwSRb321JDhPGVlAyv-1" target="1JbwSRb321JDhPGVlAyv-3">
          <mxGeometry relative="1" as="geometry" />
        </mxCell>
        <mxCell id="1JbwSRb321JDhPGVlAyv-1" value="Start" style="ellipse;whiteSpace=wrap;html=1;" vertex="1" parent="1">
          <mxGeometry x="370" y="130" width="120" height="80" as="geometry" />
        </mxCell>
        <mxCell id="1JbwSRb321JDhPGVlAyv-2" value="End" style="ellipse;whiteSpace=wrap;html=1;" vertex="1" parent="1">
          <mxGeometry x="370" y="540" width="120" height="80" as="geometry" />
        </mxCell>
        <mxCell id="1JbwSRb321JDhPGVlAyv-6" value="" style="edgeStyle=orthogonalEdgeStyle;rounded=0;orthogonalLoop=1;jettySize=auto;html=1;" edge="1" parent="1" source="1JbwSRb321JDhPGVlAyv-3" target="1JbwSRb321JDhPGVlAyv-5">
          <mxGeometry relative="1" as="geometry" />
        </mxCell>
        <mxCell id="1JbwSRb321JDhPGVlAyv-3" value="กลอกตัวเลข 3 ตัว" style="rounded=0;whiteSpace=wrap;html=1;" vertex="1" parent="1">
          <mxGeometry x="370" y="250" width="120" height="60" as="geometry" />
        </mxCell>
        <mxCell id="1JbwSRb321JDhPGVlAyv-8" value="" style="edgeStyle=orthogonalEdgeStyle;rounded=0;orthogonalLoop=1;jettySize=auto;html=1;" edge="1" parent="1" source="1JbwSRb321JDhPGVlAyv-5" target="1JbwSRb321JDhPGVlAyv-7">
          <mxGeometry relative="1" as="geometry" />
        </mxCell>
        <mxCell id="1JbwSRb321JDhPGVlAyv-5" value="บวกเลขทั้งหมด" style="rounded=0;whiteSpace=wrap;html=1;" vertex="1" parent="1">
          <mxGeometry x="370" y="350" width="120" height="60" as="geometry" />
        </mxCell>
        <mxCell id="1JbwSRb321JDhPGVlAyv-9" value="" style="edgeStyle=orthogonalEdgeStyle;rounded=0;orthogonalLoop=1;jettySize=auto;html=1;" edge="1" parent="1" source="1JbwSRb321JDhPGVlAyv-7" target="1JbwSRb321JDhPGVlAyv-2">
          <mxGeometry relative="1" as="geometry" />
        </mxCell>
        <mxCell id="1JbwSRb321JDhPGVlAyv-7" value="แสดงผลลัพธ์ (Sum)" style="rounded=0;whiteSpace=wrap;html=1;" vertex="1" parent="1">
          <mxGeometry x="370" y="450" width="120" height="60" as="geometry" />
        </mxCell>
      </root>
    </mxGraphModel>
  </diagram>
</mxfile>
